<?xml version="1.0" standalone="no"?>
<!DOCTYPE svg PUBLIC "-//W3C//DTD SVG 20010904//EN"
 "http://www.w3.org/TR/2001/REC-SVG-20010904/DTD/svg10.dtd">
<svg version="1.0" xmlns="http://www.w3.org/2000/svg"
 width="37.000000pt" height="37.000000pt" viewBox="0 0 37.000000 37.000000"
 preserveAspectRatio="xMidYMid meet">

<g transform="translate(0.000000,37.000000) scale(0.100000,-0.100000)"
fill="#000000" stroke="none">
<path d="M0 185 l0 -185 185 0 185 0 0 185 0 185 -185 0 -185 0 0 -185z m224
149 c9 -8 19 -26 22 -40 5 -18 13 -24 33 -24 51 0 68 -43 31 -80 -16 -16 -18
-25 -10 -40 26 -49 0 -89 -49 -72 -26 9 -31 7 -50 -19 -31 -42 -59 -38 -78 10
-13 33 -21 40 -46 43 -45 5 -56 30 -29 67 18 25 20 34 11 60 -17 49 -6 64 43
59 37 -3 46 0 66 24 27 32 35 34 56 12z"/>
<path d="M174 309 c-18 -20 -18 -21 1 -35 11 -8 26 -12 33 -9 8 3 18 5 22 5 5
0 4 14 -1 30 -13 35 -29 38 -55 9z"/>
<path d="M70 261 c0 -35 13 -46 39 -32 29 16 33 48 7 55 -38 10 -46 7 -46 -23z"/>
<path d="M145 260 c-3 -5 1 -10 10 -10 9 0 13 5 10 10 -3 6 -8 10 -10 10 -2 0
-7 -4 -10 -10z"/>
<path d="M250 237 c0 -13 9 -32 19 -41 19 -17 20 -17 37 9 17 26 17 28 -1 41
-30 22 -55 18 -55 -9z"/>
<path d="M157 234 c-55 -30 -20 -117 39 -97 32 11 51 58 32 80 -22 27 -42 31
-71 17z m41 -23 c20 -12 10 -46 -14 -49 -25 -4 -40 24 -23 44 13 16 19 17 37
5z"/>
<path d="M225 240 c3 -5 8 -10 11 -10 2 0 4 5 4 10 0 6 -5 10 -11 10 -5 0 -7
-4 -4 -10z"/>
<path d="M100 200 c0 -5 5 -10 10 -10 6 0 10 5 10 10 0 6 -4 10 -10 10 -5 0
-10 -4 -10 -10z"/>
<path d="M56 168 c-19 -26 -5 -48 30 -48 18 0 24 5 24 23 0 22 -16 47 -31 47
-5 0 -15 -10 -23 -22z"/>
<path d="M246 175 c-3 -8 -1 -15 4 -15 13 0 22 18 11 24 -5 3 -11 -1 -15 -9z"/>
<path d="M250 142 c-31 -25 -21 -55 17 -50 23 2 28 7 25 28 -4 37 -16 43 -42
22z"/>
<path d="M125 130 c3 -5 11 -10 16 -10 6 0 7 5 4 10 -3 6 -11 10 -16 10 -6 0
-7 -4 -4 -10z"/>
<path d="M195 120 c-3 -5 1 -10 9 -10 9 0 16 5 16 10 0 6 -4 10 -9 10 -6 0
-13 -4 -16 -10z"/>
<path d="M130 92 c0 -10 6 -27 14 -37 14 -19 15 -19 35 -1 25 23 27 42 5 50
-30 12 -54 6 -54 -12z"/>
</g>
</svg>
