<?xml version="1.0" standalone="no"?>
<!DOCTYPE svg PUBLIC "-//W3C//DTD SVG 20010904//EN"
 "http://www.w3.org/TR/2001/REC-SVG-20010904/DTD/svg10.dtd">
<svg version="1.0" xmlns="http://www.w3.org/2000/svg"
 width="364.000000pt" height="74.000000pt" viewBox="0 0 364.000000 74.000000"
 preserveAspectRatio="xMidYMid meet">

<g transform="translate(0.000000,74.000000) scale(0.08000,-0.080000)"
fill="#000000" stroke="none">
<path d="M0 370 l0 -370 1820 0 1820 0 0 370 0 370 -1820 0 -1820 0 0 -370z
m330 168 c33 -17 51 -35 68 -68 28 -56 28 -94 0 -150 -26 -50 -89 -90 -143
-90 -17 0 -51 10 -75 22 -50 26 -90 89 -90 144 0 51 40 115 90 141 54 29 94
29 150 1z m3060 -5 c47 -9 117 -79 125 -125 11 -56 -2 -104 -38 -145 -74 -85
-190 -85 -264 0 -75 86 -46 209 62 258 44 20 65 22 115 12z"/>
</g>
</svg>
