<?xml version="1.0" standalone="no"?>
<!DOCTYPE svg PUBLIC "-//W3C//DTD SVG 20010904//EN"
 "http://www.w3.org/TR/2001/REC-SVG-20010904/DTD/svg10.dtd">
<svg version="1.0" xmlns="http://www.w3.org/2000/svg"
 width="182.000000pt" height="183.000000pt" viewBox="0 0 182.000000 183.000000"
 preserveAspectRatio="xMidYMid meet">

<g transform="translate(0.000000,183.000000) scale(0.100000,-0.100000)"
fill="#000000" stroke="none">
<path d="M0 915 l0 -915 910 0 910 0 0 915 0 915 -910 0 -910 0 0 -915z m1056
786 c72 -33 132 -137 162 -280 l16 -79 106 -5 c128 -6 199 -27 250 -74 50 -45
63 -87 46 -153 -17 -65 -55 -120 -142 -204 l-71 -68 47 -93 c106 -209 83 -344
-66 -375 -65 -14 -163 -1 -261 35 l-62 22 -40 -67 c-85 -143 -197 -230 -277
-216 -86 17 -168 145 -196 305 l-12 71 -77 0 c-99 0 -171 14 -236 46 -146 71
-132 209 38 377 l81 80 -40 76 c-91 172 -95 302 -11 363 55 41 196 38 326 -6
l70 -24 36 63 c64 110 149 192 227 216 37 11 41 10 86 -10z"/>
<path d="M945 1621 c-66 -39 -180 -200 -158 -222 5 -5 45 -30 89 -55 l79 -45
80 15 c44 9 90 16 103 16 27 0 27 7 3 103 -46 177 -112 240 -196 188z"/>
<path d="M362 1410 c-35 -15 -46 -55 -34 -123 12 -64 76 -205 97 -213 7 -3 30
5 52 19 21 13 59 36 85 51 45 25 47 29 78 122 18 52 30 97 27 100 -2 2 -31 14
-63 26 -65 23 -205 34 -242 18z"/>
<path d="M725 1293 c-9 -20 -18 -47 -21 -59 l-6 -23 76 27 c42 15 76 30 76 34
0 7 -92 58 -105 58 -2 0 -12 -17 -20 -37z"/>
<path d="M1240 1163 l0 -109 40 -39 c22 -22 52 -56 67 -77 14 -21 29 -38 32
-38 4 0 38 31 76 69 186 186 147 281 -122 298 l-93 6 0 -110z"/>
<path d="M1087 1250 c-49 -9 -52 -14 -21 -34 14 -10 43 -33 65 -53 l39 -35 0
66 c0 74 1 73 -83 56z"/>
<path d="M855 1190 c-44 -14 -104 -37 -132 -49 -61 -27 -63 -31 -89 -204 l-17
-107 29 -27 c16 -15 67 -57 112 -94 l84 -67 51 15 c43 12 106 36 214 80 13 5
30 76 48 205 l12 87 -41 39 c-49 47 -148 127 -173 140 -13 7 -42 1 -98 -18z
m105 -132 c130 -67 92 -260 -53 -275 -158 -16 -219 208 -77 279 46 24 77 23
130 -4z"/>
<path d="M525 1038 c-28 -17 -52 -32 -54 -34 -2 -2 16 -27 40 -55 l43 -52 13
83 c7 46 12 84 10 86 -1 2 -25 -11 -52 -28z"/>
<path d="M331 890 c-84 -82 -128 -162 -114 -208 16 -51 136 -92 267 -92 l61 0
-1 104 -1 105 -68 80 c-38 45 -69 81 -70 81 -2 0 -35 -32 -74 -70z"/>
<path d="M1219 876 c-8 -47 -14 -86 -13 -86 7 0 95 54 100 61 6 10 -8 33 -48
83 l-24 28 -15 -86z"/>
<path d="M1271 744 c-41 -23 -78 -47 -83 -52 -5 -5 -22 -45 -37 -88 -16 -44
-32 -87 -35 -96 -11 -24 131 -68 219 -68 111 0 132 21 123 126 -5 59 -81 225
-102 223 -6 -1 -44 -21 -85 -45z"/>
<path d="M620 659 l0 -62 53 7 c28 4 55 11 60 15 6 6 -94 101 -107 101 -3 0
-6 -28 -6 -61z"/>
<path d="M1008 621 c-37 -15 -70 -30 -73 -32 -6 -6 87 -59 102 -59 8 0 53 99
53 116 0 7 -12 3 -82 -25z"/>
<path d="M745 544 c-33 -7 -72 -13 -87 -14 -35 0 -36 -17 -8 -119 66 -237 168
-253 307 -48 29 43 53 81 53 86 0 10 -177 111 -193 110 -7 -1 -39 -7 -72 -15z"/>
</g>
</svg>
